<mxfile host="Electron" modified="2024-04-07T08:54:57.723Z" agent="Mozilla/5.0 (Windows NT 10.0; Win64; x64) AppleWebKit/537.36 (KHTML, like Gecko) draw.io/24.1.0 Chrome/120.0.6099.109 Electron/28.1.0 Safari/537.36" etag="bfmEin0up6FxRoSQLVHv" version="24.1.0" type="device">
  <diagram name="第 1 页" id="NM-lv_BCd2k1hBw6JyoD">
    <mxGraphModel dx="1473" dy="867" grid="0" gridSize="10" guides="1" tooltips="1" connect="1" arrows="1" fold="1" page="1" pageScale="1" pageWidth="827" pageHeight="1169" math="0" shadow="0">
      <root>
        <mxCell id="0" />
        <mxCell id="1" parent="0" />
        <mxCell id="21LwvbHj16snSP2deV8U-220" value="" style="rounded=0;whiteSpace=wrap;html=1;strokeColor=none;fillColor=none;" vertex="1" parent="1">
          <mxGeometry x="60" y="59" width="680" height="630" as="geometry" />
        </mxCell>
        <mxCell id="21LwvbHj16snSP2deV8U-213" value="" style="rounded=0;whiteSpace=wrap;html=1;strokeColor=#CCCCCC;" vertex="1" parent="1">
          <mxGeometry x="176.5" y="554" width="71" height="47" as="geometry" />
        </mxCell>
        <mxCell id="21LwvbHj16snSP2deV8U-188" value="" style="ellipse;whiteSpace=wrap;html=1;aspect=fixed;strokeColor=#CCCCCC;" vertex="1" parent="1">
          <mxGeometry x="621" y="316" width="100" height="100" as="geometry" />
        </mxCell>
        <mxCell id="21LwvbHj16snSP2deV8U-163" value="" style="ellipse;whiteSpace=wrap;html=1;aspect=fixed;strokeColor=#CCCCCC;" vertex="1" parent="1">
          <mxGeometry x="597" y="477" width="89" height="89" as="geometry" />
        </mxCell>
        <mxCell id="21LwvbHj16snSP2deV8U-154" value="" style="ellipse;whiteSpace=wrap;html=1;aspect=fixed;strokeColor=#CCCCCC;" vertex="1" parent="1">
          <mxGeometry x="474.5" y="474" width="92" height="92" as="geometry" />
        </mxCell>
        <mxCell id="21LwvbHj16snSP2deV8U-138" value="" style="ellipse;whiteSpace=wrap;html=1;aspect=fixed;strokeColor=#CCCCCC;" vertex="1" parent="1">
          <mxGeometry x="361" y="471" width="85" height="85" as="geometry" />
        </mxCell>
        <mxCell id="21LwvbHj16snSP2deV8U-120" value="" style="ellipse;whiteSpace=wrap;html=1;aspect=fixed;strokeColor=#CCCCCC;" vertex="1" parent="1">
          <mxGeometry x="521" y="373" width="84" height="84" as="geometry" />
        </mxCell>
        <mxCell id="21LwvbHj16snSP2deV8U-2" value="&lt;font style=&quot;font-size: 14px;&quot; face=&quot;Verdana&quot;&gt;&lt;b&gt;PROBLEM&lt;/b&gt;&lt;/font&gt;" style="ellipse;shape=cloud;whiteSpace=wrap;html=1;" vertex="1" parent="1">
          <mxGeometry x="161" y="76" width="161" height="69" as="geometry" />
        </mxCell>
        <mxCell id="21LwvbHj16snSP2deV8U-3" value="" style="endArrow=classic;html=1;rounded=0;strokeWidth=3;" edge="1" parent="1">
          <mxGeometry width="50" height="50" relative="1" as="geometry">
            <mxPoint x="320" y="126" as="sourcePoint" />
            <mxPoint x="365" y="163" as="targetPoint" />
          </mxGeometry>
        </mxCell>
        <mxCell id="21LwvbHj16snSP2deV8U-4" value="&lt;font face=&quot;Verdana&quot;&gt;Partition&lt;/font&gt;" style="text;html=1;align=center;verticalAlign=middle;whiteSpace=wrap;rounded=0;" vertex="1" parent="1">
          <mxGeometry x="328" y="113" width="77" height="36" as="geometry" />
        </mxCell>
        <mxCell id="21LwvbHj16snSP2deV8U-5" value="" style="ellipse;whiteSpace=wrap;html=1;aspect=fixed;" vertex="1" parent="1">
          <mxGeometry x="374" y="164" width="18" height="18" as="geometry" />
        </mxCell>
        <mxCell id="21LwvbHj16snSP2deV8U-6" value="" style="ellipse;whiteSpace=wrap;html=1;aspect=fixed;" vertex="1" parent="1">
          <mxGeometry x="374" y="192" width="18" height="18" as="geometry" />
        </mxCell>
        <mxCell id="21LwvbHj16snSP2deV8U-7" value="" style="ellipse;whiteSpace=wrap;html=1;aspect=fixed;" vertex="1" parent="1">
          <mxGeometry x="374" y="220" width="18" height="18" as="geometry" />
        </mxCell>
        <mxCell id="21LwvbHj16snSP2deV8U-8" value="" style="ellipse;whiteSpace=wrap;html=1;aspect=fixed;" vertex="1" parent="1">
          <mxGeometry x="405" y="145" width="18" height="18" as="geometry" />
        </mxCell>
        <mxCell id="21LwvbHj16snSP2deV8U-9" value="" style="ellipse;whiteSpace=wrap;html=1;aspect=fixed;" vertex="1" parent="1">
          <mxGeometry x="405" y="174" width="18" height="18" as="geometry" />
        </mxCell>
        <mxCell id="21LwvbHj16snSP2deV8U-11" value="" style="ellipse;whiteSpace=wrap;html=1;aspect=fixed;" vertex="1" parent="1">
          <mxGeometry x="405" y="202" width="18" height="18" as="geometry" />
        </mxCell>
        <mxCell id="21LwvbHj16snSP2deV8U-12" value="" style="ellipse;whiteSpace=wrap;html=1;aspect=fixed;" vertex="1" parent="1">
          <mxGeometry x="405" y="228" width="18" height="18" as="geometry" />
        </mxCell>
        <mxCell id="21LwvbHj16snSP2deV8U-13" value="" style="ellipse;whiteSpace=wrap;html=1;aspect=fixed;" vertex="1" parent="1">
          <mxGeometry x="405" y="254" width="18" height="18" as="geometry" />
        </mxCell>
        <mxCell id="21LwvbHj16snSP2deV8U-14" value="" style="ellipse;whiteSpace=wrap;html=1;aspect=fixed;" vertex="1" parent="1">
          <mxGeometry x="435" y="159" width="18" height="18" as="geometry" />
        </mxCell>
        <mxCell id="21LwvbHj16snSP2deV8U-15" value="" style="ellipse;whiteSpace=wrap;html=1;aspect=fixed;" vertex="1" parent="1">
          <mxGeometry x="435" y="187" width="18" height="18" as="geometry" />
        </mxCell>
        <mxCell id="21LwvbHj16snSP2deV8U-16" value="" style="ellipse;whiteSpace=wrap;html=1;aspect=fixed;" vertex="1" parent="1">
          <mxGeometry x="435" y="213" width="18" height="18" as="geometry" />
        </mxCell>
        <mxCell id="21LwvbHj16snSP2deV8U-17" value="" style="ellipse;whiteSpace=wrap;html=1;aspect=fixed;" vertex="1" parent="1">
          <mxGeometry x="435" y="239" width="18" height="18" as="geometry" />
        </mxCell>
        <mxCell id="21LwvbHj16snSP2deV8U-18" value="" style="ellipse;whiteSpace=wrap;html=1;aspect=fixed;" vertex="1" parent="1">
          <mxGeometry x="466" y="145" width="18" height="18" as="geometry" />
        </mxCell>
        <mxCell id="21LwvbHj16snSP2deV8U-19" value="" style="ellipse;whiteSpace=wrap;html=1;aspect=fixed;" vertex="1" parent="1">
          <mxGeometry x="466" y="174" width="18" height="18" as="geometry" />
        </mxCell>
        <mxCell id="21LwvbHj16snSP2deV8U-20" value="" style="ellipse;whiteSpace=wrap;html=1;aspect=fixed;" vertex="1" parent="1">
          <mxGeometry x="466" y="202" width="18" height="18" as="geometry" />
        </mxCell>
        <mxCell id="21LwvbHj16snSP2deV8U-21" value="" style="ellipse;whiteSpace=wrap;html=1;aspect=fixed;" vertex="1" parent="1">
          <mxGeometry x="466" y="228" width="18" height="18" as="geometry" />
        </mxCell>
        <mxCell id="21LwvbHj16snSP2deV8U-22" value="" style="ellipse;whiteSpace=wrap;html=1;aspect=fixed;" vertex="1" parent="1">
          <mxGeometry x="466" y="254" width="18" height="18" as="geometry" />
        </mxCell>
        <mxCell id="21LwvbHj16snSP2deV8U-23" value="" style="ellipse;whiteSpace=wrap;html=1;aspect=fixed;" vertex="1" parent="1">
          <mxGeometry x="495" y="159" width="18" height="18" as="geometry" />
        </mxCell>
        <mxCell id="21LwvbHj16snSP2deV8U-24" value="" style="ellipse;whiteSpace=wrap;html=1;aspect=fixed;" vertex="1" parent="1">
          <mxGeometry x="495" y="187" width="18" height="18" as="geometry" />
        </mxCell>
        <mxCell id="21LwvbHj16snSP2deV8U-25" value="" style="ellipse;whiteSpace=wrap;html=1;aspect=fixed;" vertex="1" parent="1">
          <mxGeometry x="495" y="213" width="18" height="18" as="geometry" />
        </mxCell>
        <mxCell id="21LwvbHj16snSP2deV8U-26" value="" style="ellipse;whiteSpace=wrap;html=1;aspect=fixed;" vertex="1" parent="1">
          <mxGeometry x="495" y="239" width="18" height="18" as="geometry" />
        </mxCell>
        <mxCell id="21LwvbHj16snSP2deV8U-27" value="" style="ellipse;whiteSpace=wrap;html=1;aspect=fixed;" vertex="1" parent="1">
          <mxGeometry x="526" y="145" width="18" height="18" as="geometry" />
        </mxCell>
        <mxCell id="21LwvbHj16snSP2deV8U-28" value="" style="ellipse;whiteSpace=wrap;html=1;aspect=fixed;" vertex="1" parent="1">
          <mxGeometry x="526" y="174" width="18" height="18" as="geometry" />
        </mxCell>
        <mxCell id="21LwvbHj16snSP2deV8U-29" value="" style="ellipse;whiteSpace=wrap;html=1;aspect=fixed;" vertex="1" parent="1">
          <mxGeometry x="526" y="202" width="18" height="18" as="geometry" />
        </mxCell>
        <mxCell id="21LwvbHj16snSP2deV8U-30" value="" style="ellipse;whiteSpace=wrap;html=1;aspect=fixed;" vertex="1" parent="1">
          <mxGeometry x="526" y="228" width="18" height="18" as="geometry" />
        </mxCell>
        <mxCell id="21LwvbHj16snSP2deV8U-31" value="" style="ellipse;whiteSpace=wrap;html=1;aspect=fixed;" vertex="1" parent="1">
          <mxGeometry x="526" y="254" width="18" height="18" as="geometry" />
        </mxCell>
        <mxCell id="21LwvbHj16snSP2deV8U-32" value="" style="ellipse;whiteSpace=wrap;html=1;aspect=fixed;" vertex="1" parent="1">
          <mxGeometry x="553" y="182" width="18" height="18" as="geometry" />
        </mxCell>
        <mxCell id="21LwvbHj16snSP2deV8U-33" value="" style="ellipse;whiteSpace=wrap;html=1;aspect=fixed;" vertex="1" parent="1">
          <mxGeometry x="553" y="210" width="18" height="18" as="geometry" />
        </mxCell>
        <mxCell id="21LwvbHj16snSP2deV8U-34" value="" style="endArrow=classic;html=1;rounded=0;strokeWidth=3;" edge="1" parent="1">
          <mxGeometry width="50" height="50" relative="1" as="geometry">
            <mxPoint x="390" y="263" as="sourcePoint" />
            <mxPoint x="289" y="298" as="targetPoint" />
          </mxGeometry>
        </mxCell>
        <mxCell id="21LwvbHj16snSP2deV8U-35" value="&lt;font face=&quot;Verdana&quot;&gt;Communicate&lt;/font&gt;" style="text;html=1;align=center;verticalAlign=middle;whiteSpace=wrap;rounded=0;" vertex="1" parent="1">
          <mxGeometry x="276" y="244" width="104" height="36" as="geometry" />
        </mxCell>
        <mxCell id="21LwvbHj16snSP2deV8U-36" value="" style="ellipse;whiteSpace=wrap;html=1;aspect=fixed;" vertex="1" parent="1">
          <mxGeometry x="82" y="280" width="18" height="18" as="geometry" />
        </mxCell>
        <mxCell id="21LwvbHj16snSP2deV8U-37" value="" style="ellipse;whiteSpace=wrap;html=1;aspect=fixed;" vertex="1" parent="1">
          <mxGeometry x="82" y="308" width="18" height="18" as="geometry" />
        </mxCell>
        <mxCell id="21LwvbHj16snSP2deV8U-38" value="" style="ellipse;whiteSpace=wrap;html=1;aspect=fixed;" vertex="1" parent="1">
          <mxGeometry x="82" y="336" width="18" height="18" as="geometry" />
        </mxCell>
        <mxCell id="21LwvbHj16snSP2deV8U-39" value="" style="ellipse;whiteSpace=wrap;html=1;aspect=fixed;" vertex="1" parent="1">
          <mxGeometry x="113" y="261" width="18" height="18" as="geometry" />
        </mxCell>
        <mxCell id="21LwvbHj16snSP2deV8U-40" value="" style="ellipse;whiteSpace=wrap;html=1;aspect=fixed;" vertex="1" parent="1">
          <mxGeometry x="113" y="290" width="18" height="18" as="geometry" />
        </mxCell>
        <mxCell id="21LwvbHj16snSP2deV8U-41" value="" style="ellipse;whiteSpace=wrap;html=1;aspect=fixed;" vertex="1" parent="1">
          <mxGeometry x="113" y="318" width="18" height="18" as="geometry" />
        </mxCell>
        <mxCell id="21LwvbHj16snSP2deV8U-42" value="" style="ellipse;whiteSpace=wrap;html=1;aspect=fixed;" vertex="1" parent="1">
          <mxGeometry x="113" y="344" width="18" height="18" as="geometry" />
        </mxCell>
        <mxCell id="21LwvbHj16snSP2deV8U-43" value="" style="ellipse;whiteSpace=wrap;html=1;aspect=fixed;" vertex="1" parent="1">
          <mxGeometry x="113" y="370" width="18" height="18" as="geometry" />
        </mxCell>
        <mxCell id="21LwvbHj16snSP2deV8U-44" value="" style="ellipse;whiteSpace=wrap;html=1;aspect=fixed;" vertex="1" parent="1">
          <mxGeometry x="143" y="275" width="18" height="18" as="geometry" />
        </mxCell>
        <mxCell id="21LwvbHj16snSP2deV8U-45" value="" style="ellipse;whiteSpace=wrap;html=1;aspect=fixed;" vertex="1" parent="1">
          <mxGeometry x="143" y="303" width="18" height="18" as="geometry" />
        </mxCell>
        <mxCell id="21LwvbHj16snSP2deV8U-46" value="" style="ellipse;whiteSpace=wrap;html=1;aspect=fixed;" vertex="1" parent="1">
          <mxGeometry x="143" y="329" width="18" height="18" as="geometry" />
        </mxCell>
        <mxCell id="21LwvbHj16snSP2deV8U-47" value="" style="ellipse;whiteSpace=wrap;html=1;aspect=fixed;" vertex="1" parent="1">
          <mxGeometry x="143" y="355" width="18" height="18" as="geometry" />
        </mxCell>
        <mxCell id="21LwvbHj16snSP2deV8U-48" value="" style="ellipse;whiteSpace=wrap;html=1;aspect=fixed;" vertex="1" parent="1">
          <mxGeometry x="174" y="261" width="18" height="18" as="geometry" />
        </mxCell>
        <mxCell id="21LwvbHj16snSP2deV8U-49" value="" style="ellipse;whiteSpace=wrap;html=1;aspect=fixed;" vertex="1" parent="1">
          <mxGeometry x="174" y="290" width="18" height="18" as="geometry" />
        </mxCell>
        <mxCell id="21LwvbHj16snSP2deV8U-50" value="" style="ellipse;whiteSpace=wrap;html=1;aspect=fixed;" vertex="1" parent="1">
          <mxGeometry x="174" y="318" width="18" height="18" as="geometry" />
        </mxCell>
        <mxCell id="21LwvbHj16snSP2deV8U-51" value="" style="ellipse;whiteSpace=wrap;html=1;aspect=fixed;" vertex="1" parent="1">
          <mxGeometry x="174" y="344" width="18" height="18" as="geometry" />
        </mxCell>
        <mxCell id="21LwvbHj16snSP2deV8U-52" value="" style="ellipse;whiteSpace=wrap;html=1;aspect=fixed;" vertex="1" parent="1">
          <mxGeometry x="174" y="370" width="18" height="18" as="geometry" />
        </mxCell>
        <mxCell id="21LwvbHj16snSP2deV8U-53" value="" style="ellipse;whiteSpace=wrap;html=1;aspect=fixed;" vertex="1" parent="1">
          <mxGeometry x="203" y="275" width="18" height="18" as="geometry" />
        </mxCell>
        <mxCell id="21LwvbHj16snSP2deV8U-54" value="" style="ellipse;whiteSpace=wrap;html=1;aspect=fixed;" vertex="1" parent="1">
          <mxGeometry x="203" y="303" width="18" height="18" as="geometry" />
        </mxCell>
        <mxCell id="21LwvbHj16snSP2deV8U-55" value="" style="ellipse;whiteSpace=wrap;html=1;aspect=fixed;" vertex="1" parent="1">
          <mxGeometry x="203" y="329" width="18" height="18" as="geometry" />
        </mxCell>
        <mxCell id="21LwvbHj16snSP2deV8U-56" value="" style="ellipse;whiteSpace=wrap;html=1;aspect=fixed;" vertex="1" parent="1">
          <mxGeometry x="203" y="355" width="18" height="18" as="geometry" />
        </mxCell>
        <mxCell id="21LwvbHj16snSP2deV8U-57" value="" style="ellipse;whiteSpace=wrap;html=1;aspect=fixed;" vertex="1" parent="1">
          <mxGeometry x="234" y="261" width="18" height="18" as="geometry" />
        </mxCell>
        <mxCell id="21LwvbHj16snSP2deV8U-58" value="" style="ellipse;whiteSpace=wrap;html=1;aspect=fixed;" vertex="1" parent="1">
          <mxGeometry x="234" y="290" width="18" height="18" as="geometry" />
        </mxCell>
        <mxCell id="21LwvbHj16snSP2deV8U-59" value="" style="ellipse;whiteSpace=wrap;html=1;aspect=fixed;" vertex="1" parent="1">
          <mxGeometry x="234" y="318" width="18" height="18" as="geometry" />
        </mxCell>
        <mxCell id="21LwvbHj16snSP2deV8U-60" value="" style="ellipse;whiteSpace=wrap;html=1;aspect=fixed;" vertex="1" parent="1">
          <mxGeometry x="234" y="344" width="18" height="18" as="geometry" />
        </mxCell>
        <mxCell id="21LwvbHj16snSP2deV8U-61" value="" style="ellipse;whiteSpace=wrap;html=1;aspect=fixed;" vertex="1" parent="1">
          <mxGeometry x="234" y="370" width="18" height="18" as="geometry" />
        </mxCell>
        <mxCell id="21LwvbHj16snSP2deV8U-62" value="" style="ellipse;whiteSpace=wrap;html=1;aspect=fixed;" vertex="1" parent="1">
          <mxGeometry x="261" y="298" width="18" height="18" as="geometry" />
        </mxCell>
        <mxCell id="21LwvbHj16snSP2deV8U-63" value="" style="ellipse;whiteSpace=wrap;html=1;aspect=fixed;" vertex="1" parent="1">
          <mxGeometry x="261" y="326" width="18" height="18" as="geometry" />
        </mxCell>
        <mxCell id="21LwvbHj16snSP2deV8U-64" value="" style="endArrow=none;html=1;rounded=0;entryX=0;entryY=0.5;entryDx=0;entryDy=0;" edge="1" parent="1" target="21LwvbHj16snSP2deV8U-57">
          <mxGeometry width="50" height="50" relative="1" as="geometry">
            <mxPoint x="192" y="270" as="sourcePoint" />
            <mxPoint x="242" y="220" as="targetPoint" />
          </mxGeometry>
        </mxCell>
        <mxCell id="21LwvbHj16snSP2deV8U-66" value="" style="endArrow=none;html=1;rounded=0;entryX=0;entryY=0.5;entryDx=0;entryDy=0;" edge="1" parent="1" target="21LwvbHj16snSP2deV8U-53">
          <mxGeometry width="50" height="50" relative="1" as="geometry">
            <mxPoint x="187" y="278" as="sourcePoint" />
            <mxPoint x="237" y="228" as="targetPoint" />
          </mxGeometry>
        </mxCell>
        <mxCell id="21LwvbHj16snSP2deV8U-68" value="" style="endArrow=none;html=1;rounded=0;entryX=0.5;entryY=0;entryDx=0;entryDy=0;" edge="1" parent="1" target="21LwvbHj16snSP2deV8U-54">
          <mxGeometry width="50" height="50" relative="1" as="geometry">
            <mxPoint x="212" y="293" as="sourcePoint" />
            <mxPoint x="212" y="302" as="targetPoint" />
          </mxGeometry>
        </mxCell>
        <mxCell id="21LwvbHj16snSP2deV8U-69" value="" style="endArrow=none;html=1;rounded=0;" edge="1" parent="1">
          <mxGeometry width="50" height="50" relative="1" as="geometry">
            <mxPoint x="212" y="321" as="sourcePoint" />
            <mxPoint x="211.88" y="329" as="targetPoint" />
          </mxGeometry>
        </mxCell>
        <mxCell id="21LwvbHj16snSP2deV8U-72" value="" style="endArrow=none;html=1;rounded=0;" edge="1" parent="1">
          <mxGeometry width="50" height="50" relative="1" as="geometry">
            <mxPoint x="243" y="336" as="sourcePoint" />
            <mxPoint x="242.88" y="344" as="targetPoint" />
          </mxGeometry>
        </mxCell>
        <mxCell id="21LwvbHj16snSP2deV8U-73" value="" style="endArrow=none;html=1;rounded=0;" edge="1" parent="1">
          <mxGeometry width="50" height="50" relative="1" as="geometry">
            <mxPoint x="252" y="302" as="sourcePoint" />
            <mxPoint x="261" y="305" as="targetPoint" />
          </mxGeometry>
        </mxCell>
        <mxCell id="21LwvbHj16snSP2deV8U-74" value="" style="endArrow=none;html=1;rounded=0;" edge="1" parent="1">
          <mxGeometry width="50" height="50" relative="1" as="geometry">
            <mxPoint x="252" y="329" as="sourcePoint" />
            <mxPoint x="261" y="332" as="targetPoint" />
          </mxGeometry>
        </mxCell>
        <mxCell id="21LwvbHj16snSP2deV8U-75" value="" style="endArrow=none;html=1;rounded=0;entryX=-0.013;entryY=0.411;entryDx=0;entryDy=0;entryPerimeter=0;" edge="1" parent="1" target="21LwvbHj16snSP2deV8U-60">
          <mxGeometry width="50" height="50" relative="1" as="geometry">
            <mxPoint x="219" y="343.5" as="sourcePoint" />
            <mxPoint x="233" y="350" as="targetPoint" />
          </mxGeometry>
        </mxCell>
        <mxCell id="21LwvbHj16snSP2deV8U-76" value="" style="endArrow=none;html=1;rounded=0;entryX=0.96;entryY=0.295;entryDx=0;entryDy=0;entryPerimeter=0;" edge="1" parent="1" target="21LwvbHj16snSP2deV8U-54">
          <mxGeometry width="50" height="50" relative="1" as="geometry">
            <mxPoint x="234" y="300" as="sourcePoint" />
            <mxPoint x="243" y="303" as="targetPoint" />
          </mxGeometry>
        </mxCell>
        <mxCell id="21LwvbHj16snSP2deV8U-77" value="" style="endArrow=none;html=1;rounded=0;entryX=1;entryY=0;entryDx=0;entryDy=0;" edge="1" parent="1" target="21LwvbHj16snSP2deV8U-61">
          <mxGeometry width="50" height="50" relative="1" as="geometry">
            <mxPoint x="270" y="344" as="sourcePoint" />
            <mxPoint x="256" y="352" as="targetPoint" />
          </mxGeometry>
        </mxCell>
        <mxCell id="21LwvbHj16snSP2deV8U-78" value="" style="endArrow=none;html=1;rounded=0;entryX=0;entryY=0.5;entryDx=0;entryDy=0;" edge="1" parent="1">
          <mxGeometry width="50" height="50" relative="1" as="geometry">
            <mxPoint x="192" y="378.88" as="sourcePoint" />
            <mxPoint x="234" y="378.88" as="targetPoint" />
          </mxGeometry>
        </mxCell>
        <mxCell id="21LwvbHj16snSP2deV8U-79" value="" style="endArrow=none;html=1;rounded=0;" edge="1" parent="1">
          <mxGeometry width="50" height="50" relative="1" as="geometry">
            <mxPoint x="183" y="362" as="sourcePoint" />
            <mxPoint x="182.88" y="370" as="targetPoint" />
          </mxGeometry>
        </mxCell>
        <mxCell id="21LwvbHj16snSP2deV8U-80" value="" style="endArrow=none;html=1;rounded=0;entryX=0.003;entryY=0.386;entryDx=0;entryDy=0;entryPerimeter=0;" edge="1" parent="1" target="21LwvbHj16snSP2deV8U-56">
          <mxGeometry width="50" height="50" relative="1" as="geometry">
            <mxPoint x="192" y="355" as="sourcePoint" />
            <mxPoint x="201" y="358" as="targetPoint" />
          </mxGeometry>
        </mxCell>
        <mxCell id="21LwvbHj16snSP2deV8U-81" value="" style="endArrow=none;html=1;rounded=0;" edge="1" parent="1">
          <mxGeometry width="50" height="50" relative="1" as="geometry">
            <mxPoint x="174" y="355" as="sourcePoint" />
            <mxPoint x="161" y="362" as="targetPoint" />
          </mxGeometry>
        </mxCell>
        <mxCell id="21LwvbHj16snSP2deV8U-82" value="" style="endArrow=none;html=1;rounded=0;entryX=0.003;entryY=0.401;entryDx=0;entryDy=0;entryPerimeter=0;" edge="1" parent="1" target="21LwvbHj16snSP2deV8U-55">
          <mxGeometry width="50" height="50" relative="1" as="geometry">
            <mxPoint x="192" y="329" as="sourcePoint" />
            <mxPoint x="201" y="332" as="targetPoint" />
          </mxGeometry>
        </mxCell>
        <mxCell id="21LwvbHj16snSP2deV8U-83" value="" style="endArrow=none;html=1;rounded=0;entryX=0.5;entryY=0;entryDx=0;entryDy=0;" edge="1" parent="1" target="21LwvbHj16snSP2deV8U-50">
          <mxGeometry width="50" height="50" relative="1" as="geometry">
            <mxPoint x="183" y="308" as="sourcePoint" />
            <mxPoint x="182.88" y="316" as="targetPoint" />
          </mxGeometry>
        </mxCell>
        <mxCell id="21LwvbHj16snSP2deV8U-84" value="" style="endArrow=none;html=1;rounded=0;entryX=0.5;entryY=0;entryDx=0;entryDy=0;" edge="1" parent="1">
          <mxGeometry width="50" height="50" relative="1" as="geometry">
            <mxPoint x="152" y="321" as="sourcePoint" />
            <mxPoint x="151.88" y="329" as="targetPoint" />
          </mxGeometry>
        </mxCell>
        <mxCell id="21LwvbHj16snSP2deV8U-85" value="" style="endArrow=none;html=1;rounded=0;entryX=0.081;entryY=0.262;entryDx=0;entryDy=0;entryPerimeter=0;" edge="1" parent="1" target="21LwvbHj16snSP2deV8U-50">
          <mxGeometry width="50" height="50" relative="1" as="geometry">
            <mxPoint x="161" y="314" as="sourcePoint" />
            <mxPoint x="172" y="321" as="targetPoint" />
          </mxGeometry>
        </mxCell>
        <mxCell id="21LwvbHj16snSP2deV8U-86" value="" style="endArrow=none;html=1;rounded=0;" edge="1" parent="1">
          <mxGeometry width="50" height="50" relative="1" as="geometry">
            <mxPoint x="174" y="329" as="sourcePoint" />
            <mxPoint x="161" y="336" as="targetPoint" />
          </mxGeometry>
        </mxCell>
        <mxCell id="21LwvbHj16snSP2deV8U-87" value="" style="endArrow=none;html=1;rounded=0;entryX=0.5;entryY=0;entryDx=0;entryDy=0;" edge="1" parent="1">
          <mxGeometry width="50" height="50" relative="1" as="geometry">
            <mxPoint x="152" y="347" as="sourcePoint" />
            <mxPoint x="151.88" y="355" as="targetPoint" />
          </mxGeometry>
        </mxCell>
        <mxCell id="21LwvbHj16snSP2deV8U-88" value="" style="endArrow=none;html=1;rounded=0;entryX=0;entryY=0.5;entryDx=0;entryDy=0;" edge="1" parent="1" target="21LwvbHj16snSP2deV8U-49">
          <mxGeometry width="50" height="50" relative="1" as="geometry">
            <mxPoint x="131" y="298.88" as="sourcePoint" />
            <mxPoint x="173" y="298.88" as="targetPoint" />
          </mxGeometry>
        </mxCell>
        <mxCell id="21LwvbHj16snSP2deV8U-89" value="" style="endArrow=none;html=1;rounded=0;entryX=0;entryY=0.5;entryDx=0;entryDy=0;" edge="1" parent="1">
          <mxGeometry width="50" height="50" relative="1" as="geometry">
            <mxPoint x="161" y="287" as="sourcePoint" />
            <mxPoint x="177" y="293" as="targetPoint" />
          </mxGeometry>
        </mxCell>
        <mxCell id="21LwvbHj16snSP2deV8U-90" value="" style="endArrow=none;html=1;rounded=0;entryX=0.029;entryY=0.274;entryDx=0;entryDy=0;entryPerimeter=0;" edge="1" parent="1" target="21LwvbHj16snSP2deV8U-44">
          <mxGeometry width="50" height="50" relative="1" as="geometry">
            <mxPoint x="131" y="272" as="sourcePoint" />
            <mxPoint x="147" y="278" as="targetPoint" />
          </mxGeometry>
        </mxCell>
        <mxCell id="21LwvbHj16snSP2deV8U-91" value="" style="endArrow=none;html=1;rounded=0;entryX=1;entryY=0;entryDx=0;entryDy=0;" edge="1" parent="1" target="21LwvbHj16snSP2deV8U-36">
          <mxGeometry width="50" height="50" relative="1" as="geometry">
            <mxPoint x="113" y="273" as="sourcePoint" />
            <mxPoint x="100" y="280" as="targetPoint" />
          </mxGeometry>
        </mxCell>
        <mxCell id="21LwvbHj16snSP2deV8U-92" value="" style="endArrow=none;html=1;rounded=0;entryX=0.029;entryY=0.274;entryDx=0;entryDy=0;entryPerimeter=0;" edge="1" parent="1">
          <mxGeometry width="50" height="50" relative="1" as="geometry">
            <mxPoint x="100" y="290" as="sourcePoint" />
            <mxPoint x="113" y="298" as="targetPoint" />
          </mxGeometry>
        </mxCell>
        <mxCell id="21LwvbHj16snSP2deV8U-93" value="" style="endArrow=none;html=1;rounded=0;entryX=0.029;entryY=0.274;entryDx=0;entryDy=0;entryPerimeter=0;" edge="1" parent="1">
          <mxGeometry width="50" height="50" relative="1" as="geometry">
            <mxPoint x="130" y="303" as="sourcePoint" />
            <mxPoint x="143" y="311" as="targetPoint" />
          </mxGeometry>
        </mxCell>
        <mxCell id="21LwvbHj16snSP2deV8U-94" value="" style="endArrow=none;html=1;rounded=0;entryX=0.029;entryY=0.274;entryDx=0;entryDy=0;entryPerimeter=0;" edge="1" parent="1">
          <mxGeometry width="50" height="50" relative="1" as="geometry">
            <mxPoint x="100" y="316" as="sourcePoint" />
            <mxPoint x="113" y="324" as="targetPoint" />
          </mxGeometry>
        </mxCell>
        <mxCell id="21LwvbHj16snSP2deV8U-95" value="" style="endArrow=none;html=1;rounded=0;entryX=0.029;entryY=0.274;entryDx=0;entryDy=0;entryPerimeter=0;" edge="1" parent="1">
          <mxGeometry width="50" height="50" relative="1" as="geometry">
            <mxPoint x="131" y="326" as="sourcePoint" />
            <mxPoint x="144" y="334" as="targetPoint" />
          </mxGeometry>
        </mxCell>
        <mxCell id="21LwvbHj16snSP2deV8U-96" value="" style="endArrow=none;html=1;rounded=0;entryX=0.944;entryY=0.333;entryDx=0;entryDy=0;entryPerimeter=0;" edge="1" parent="1" target="21LwvbHj16snSP2deV8U-42">
          <mxGeometry width="50" height="50" relative="1" as="geometry">
            <mxPoint x="143" y="340" as="sourcePoint" />
            <mxPoint x="130" y="347" as="targetPoint" />
          </mxGeometry>
        </mxCell>
        <mxCell id="21LwvbHj16snSP2deV8U-97" value="" style="endArrow=none;html=1;rounded=0;entryX=0.963;entryY=0.313;entryDx=0;entryDy=0;entryPerimeter=0;" edge="1" parent="1" target="21LwvbHj16snSP2deV8U-38">
          <mxGeometry width="50" height="50" relative="1" as="geometry">
            <mxPoint x="114" y="330.5" as="sourcePoint" />
            <mxPoint x="99.88400000000001" y="340.392" as="targetPoint" />
          </mxGeometry>
        </mxCell>
        <mxCell id="21LwvbHj16snSP2deV8U-98" value="" style="endArrow=none;html=1;rounded=0;entryX=0.042;entryY=0.293;entryDx=0;entryDy=0;entryPerimeter=0;" edge="1" parent="1" target="21LwvbHj16snSP2deV8U-43">
          <mxGeometry width="50" height="50" relative="1" as="geometry">
            <mxPoint x="93" y="354" as="sourcePoint" />
            <mxPoint x="106" y="362" as="targetPoint" />
          </mxGeometry>
        </mxCell>
        <mxCell id="21LwvbHj16snSP2deV8U-100" value="" style="endArrow=none;html=1;rounded=0;entryX=0.5;entryY=0;entryDx=0;entryDy=0;" edge="1" parent="1">
          <mxGeometry width="50" height="50" relative="1" as="geometry">
            <mxPoint x="122" y="362" as="sourcePoint" />
            <mxPoint x="121.88" y="370" as="targetPoint" />
          </mxGeometry>
        </mxCell>
        <mxCell id="21LwvbHj16snSP2deV8U-101" value="" style="endArrow=classic;html=1;rounded=0;strokeWidth=3;" edge="1" parent="1">
          <mxGeometry width="50" height="50" relative="1" as="geometry">
            <mxPoint x="287" y="370" as="sourcePoint" />
            <mxPoint x="382" y="405" as="targetPoint" />
          </mxGeometry>
        </mxCell>
        <mxCell id="21LwvbHj16snSP2deV8U-102" value="&lt;font face=&quot;Verdana&quot;&gt;Agglomerate&lt;/font&gt;" style="text;html=1;align=center;verticalAlign=middle;whiteSpace=wrap;rounded=0;" vertex="1" parent="1">
          <mxGeometry x="297" y="347" width="104" height="36" as="geometry" />
        </mxCell>
        <mxCell id="21LwvbHj16snSP2deV8U-103" value="" style="ellipse;whiteSpace=wrap;html=1;aspect=fixed;strokeColor=#CCCCCC;" vertex="1" parent="1">
          <mxGeometry x="408" y="375" width="80" height="80" as="geometry" />
        </mxCell>
        <mxCell id="21LwvbHj16snSP2deV8U-104" value="" style="ellipse;whiteSpace=wrap;html=1;aspect=fixed;" vertex="1" parent="1">
          <mxGeometry x="419.5" y="410" width="18" height="18" as="geometry" />
        </mxCell>
        <mxCell id="21LwvbHj16snSP2deV8U-105" value="" style="ellipse;whiteSpace=wrap;html=1;aspect=fixed;" vertex="1" parent="1">
          <mxGeometry x="450.5" y="391" width="18" height="18" as="geometry" />
        </mxCell>
        <mxCell id="21LwvbHj16snSP2deV8U-106" value="" style="ellipse;whiteSpace=wrap;html=1;aspect=fixed;" vertex="1" parent="1">
          <mxGeometry x="450.5" y="420" width="18" height="18" as="geometry" />
        </mxCell>
        <mxCell id="21LwvbHj16snSP2deV8U-107" value="" style="endArrow=none;html=1;rounded=0;entryX=1;entryY=0;entryDx=0;entryDy=0;" edge="1" parent="1" target="21LwvbHj16snSP2deV8U-104">
          <mxGeometry width="50" height="50" relative="1" as="geometry">
            <mxPoint x="450.5" y="403" as="sourcePoint" />
            <mxPoint x="437.5" y="410" as="targetPoint" />
          </mxGeometry>
        </mxCell>
        <mxCell id="21LwvbHj16snSP2deV8U-108" value="" style="endArrow=none;html=1;rounded=0;entryX=0.029;entryY=0.274;entryDx=0;entryDy=0;entryPerimeter=0;" edge="1" parent="1">
          <mxGeometry width="50" height="50" relative="1" as="geometry">
            <mxPoint x="437.5" y="420" as="sourcePoint" />
            <mxPoint x="450.5" y="428" as="targetPoint" />
          </mxGeometry>
        </mxCell>
        <mxCell id="21LwvbHj16snSP2deV8U-109" value="" style="ellipse;whiteSpace=wrap;html=1;aspect=fixed;" vertex="1" parent="1">
          <mxGeometry x="544" y="380" width="18" height="18" as="geometry" />
        </mxCell>
        <mxCell id="21LwvbHj16snSP2deV8U-110" value="" style="ellipse;whiteSpace=wrap;html=1;aspect=fixed;" vertex="1" parent="1">
          <mxGeometry x="544" y="408" width="18" height="18" as="geometry" />
        </mxCell>
        <mxCell id="21LwvbHj16snSP2deV8U-111" value="" style="ellipse;whiteSpace=wrap;html=1;aspect=fixed;" vertex="1" parent="1">
          <mxGeometry x="544" y="434" width="18" height="18" as="geometry" />
        </mxCell>
        <mxCell id="21LwvbHj16snSP2deV8U-113" value="" style="ellipse;whiteSpace=wrap;html=1;aspect=fixed;" vertex="1" parent="1">
          <mxGeometry x="575" y="395" width="18" height="18" as="geometry" />
        </mxCell>
        <mxCell id="21LwvbHj16snSP2deV8U-114" value="" style="ellipse;whiteSpace=wrap;html=1;aspect=fixed;" vertex="1" parent="1">
          <mxGeometry x="575" y="423" width="18" height="18" as="geometry" />
        </mxCell>
        <mxCell id="21LwvbHj16snSP2deV8U-115" value="" style="endArrow=none;html=1;rounded=0;entryX=0.5;entryY=0;entryDx=0;entryDy=0;" edge="1" parent="1" target="21LwvbHj16snSP2deV8U-114">
          <mxGeometry width="50" height="50" relative="1" as="geometry">
            <mxPoint x="584" y="413" as="sourcePoint" />
            <mxPoint x="583.88" y="421" as="targetPoint" />
          </mxGeometry>
        </mxCell>
        <mxCell id="21LwvbHj16snSP2deV8U-117" value="" style="endArrow=none;html=1;rounded=0;entryX=0.081;entryY=0.262;entryDx=0;entryDy=0;entryPerimeter=0;" edge="1" parent="1" target="21LwvbHj16snSP2deV8U-114">
          <mxGeometry width="50" height="50" relative="1" as="geometry">
            <mxPoint x="562" y="419" as="sourcePoint" />
            <mxPoint x="573" y="426" as="targetPoint" />
          </mxGeometry>
        </mxCell>
        <mxCell id="21LwvbHj16snSP2deV8U-118" value="" style="endArrow=none;html=1;rounded=0;" edge="1" parent="1">
          <mxGeometry width="50" height="50" relative="1" as="geometry">
            <mxPoint x="575" y="434" as="sourcePoint" />
            <mxPoint x="562" y="441" as="targetPoint" />
          </mxGeometry>
        </mxCell>
        <mxCell id="21LwvbHj16snSP2deV8U-119" value="" style="endArrow=none;html=1;rounded=0;entryX=0;entryY=0.5;entryDx=0;entryDy=0;" edge="1" parent="1">
          <mxGeometry width="50" height="50" relative="1" as="geometry">
            <mxPoint x="562" y="392" as="sourcePoint" />
            <mxPoint x="578" y="398" as="targetPoint" />
          </mxGeometry>
        </mxCell>
        <mxCell id="21LwvbHj16snSP2deV8U-122" value="" style="ellipse;whiteSpace=wrap;html=1;aspect=fixed;" vertex="1" parent="1">
          <mxGeometry x="378" y="481.5" width="18" height="18" as="geometry" />
        </mxCell>
        <mxCell id="21LwvbHj16snSP2deV8U-123" value="" style="ellipse;whiteSpace=wrap;html=1;aspect=fixed;" vertex="1" parent="1">
          <mxGeometry x="378" y="504.5" width="18" height="18" as="geometry" />
        </mxCell>
        <mxCell id="21LwvbHj16snSP2deV8U-124" value="" style="ellipse;whiteSpace=wrap;html=1;aspect=fixed;" vertex="1" parent="1">
          <mxGeometry x="378" y="530.5" width="18" height="18" as="geometry" />
        </mxCell>
        <mxCell id="21LwvbHj16snSP2deV8U-127" value="" style="ellipse;whiteSpace=wrap;html=1;aspect=fixed;" vertex="1" parent="1">
          <mxGeometry x="414" y="484.5" width="18" height="18" as="geometry" />
        </mxCell>
        <mxCell id="21LwvbHj16snSP2deV8U-128" value="" style="ellipse;whiteSpace=wrap;html=1;aspect=fixed;" vertex="1" parent="1">
          <mxGeometry x="409" y="519.5" width="18" height="18" as="geometry" />
        </mxCell>
        <mxCell id="21LwvbHj16snSP2deV8U-130" value="" style="endArrow=none;html=1;rounded=0;" edge="1" parent="1">
          <mxGeometry width="50" height="50" relative="1" as="geometry">
            <mxPoint x="409" y="530.5" as="sourcePoint" />
            <mxPoint x="396" y="537.5" as="targetPoint" />
          </mxGeometry>
        </mxCell>
        <mxCell id="21LwvbHj16snSP2deV8U-133" value="" style="endArrow=none;html=1;rounded=0;entryX=0.081;entryY=0.262;entryDx=0;entryDy=0;entryPerimeter=0;" edge="1" parent="1" target="21LwvbHj16snSP2deV8U-127">
          <mxGeometry width="50" height="50" relative="1" as="geometry">
            <mxPoint x="396" y="489.5" as="sourcePoint" />
            <mxPoint x="407" y="496.5" as="targetPoint" />
          </mxGeometry>
        </mxCell>
        <mxCell id="21LwvbHj16snSP2deV8U-134" value="" style="endArrow=none;html=1;rounded=0;" edge="1" parent="1">
          <mxGeometry width="50" height="50" relative="1" as="geometry">
            <mxPoint x="415" y="496.5" as="sourcePoint" />
            <mxPoint x="396" y="511.5" as="targetPoint" />
          </mxGeometry>
        </mxCell>
        <mxCell id="21LwvbHj16snSP2deV8U-135" value="" style="endArrow=none;html=1;rounded=0;entryX=0.5;entryY=0;entryDx=0;entryDy=0;" edge="1" parent="1">
          <mxGeometry width="50" height="50" relative="1" as="geometry">
            <mxPoint x="387" y="522.5" as="sourcePoint" />
            <mxPoint x="386.88" y="530.5" as="targetPoint" />
          </mxGeometry>
        </mxCell>
        <mxCell id="21LwvbHj16snSP2deV8U-139" value="" style="ellipse;whiteSpace=wrap;html=1;aspect=fixed;" vertex="1" parent="1">
          <mxGeometry x="480.5" y="504.5" width="18" height="18" as="geometry" />
        </mxCell>
        <mxCell id="21LwvbHj16snSP2deV8U-140" value="" style="ellipse;whiteSpace=wrap;html=1;aspect=fixed;" vertex="1" parent="1">
          <mxGeometry x="511.5" y="493.5" width="18" height="18" as="geometry" />
        </mxCell>
        <mxCell id="21LwvbHj16snSP2deV8U-141" value="" style="ellipse;whiteSpace=wrap;html=1;aspect=fixed;" vertex="1" parent="1">
          <mxGeometry x="501.5" y="528.5" width="18" height="18" as="geometry" />
        </mxCell>
        <mxCell id="21LwvbHj16snSP2deV8U-142" value="" style="ellipse;whiteSpace=wrap;html=1;aspect=fixed;" vertex="1" parent="1">
          <mxGeometry x="540.5" y="504.5" width="18" height="18" as="geometry" />
        </mxCell>
        <mxCell id="21LwvbHj16snSP2deV8U-144" value="" style="ellipse;whiteSpace=wrap;html=1;aspect=fixed;" vertex="1" parent="1">
          <mxGeometry x="535.5" y="530.5" width="18" height="18" as="geometry" />
        </mxCell>
        <mxCell id="21LwvbHj16snSP2deV8U-147" value="" style="endArrow=none;html=1;rounded=0;" edge="1" parent="1">
          <mxGeometry width="50" height="50" relative="1" as="geometry">
            <mxPoint x="519.5" y="539" as="sourcePoint" />
            <mxPoint x="535.5" y="539.5" as="targetPoint" />
          </mxGeometry>
        </mxCell>
        <mxCell id="21LwvbHj16snSP2deV8U-148" value="" style="endArrow=none;html=1;rounded=0;entryX=0.5;entryY=0;entryDx=0;entryDy=0;" edge="1" parent="1" target="21LwvbHj16snSP2deV8U-141">
          <mxGeometry width="50" height="50" relative="1" as="geometry">
            <mxPoint x="520.5" y="511.5" as="sourcePoint" />
            <mxPoint x="520.38" y="519.5" as="targetPoint" />
          </mxGeometry>
        </mxCell>
        <mxCell id="21LwvbHj16snSP2deV8U-149" value="" style="endArrow=none;html=1;rounded=0;entryX=0.003;entryY=0.386;entryDx=0;entryDy=0;entryPerimeter=0;" edge="1" parent="1" target="21LwvbHj16snSP2deV8U-142">
          <mxGeometry width="50" height="50" relative="1" as="geometry">
            <mxPoint x="529.5" y="504.5" as="sourcePoint" />
            <mxPoint x="538.5" y="507.5" as="targetPoint" />
          </mxGeometry>
        </mxCell>
        <mxCell id="21LwvbHj16snSP2deV8U-150" value="" style="endArrow=none;html=1;rounded=0;" edge="1" parent="1">
          <mxGeometry width="50" height="50" relative="1" as="geometry">
            <mxPoint x="511.5" y="504.5" as="sourcePoint" />
            <mxPoint x="498.5" y="511.5" as="targetPoint" />
          </mxGeometry>
        </mxCell>
        <mxCell id="21LwvbHj16snSP2deV8U-155" value="" style="ellipse;whiteSpace=wrap;html=1;aspect=fixed;" vertex="1" parent="1">
          <mxGeometry x="605" y="513.5" width="18" height="18" as="geometry" />
        </mxCell>
        <mxCell id="21LwvbHj16snSP2deV8U-156" value="" style="ellipse;whiteSpace=wrap;html=1;aspect=fixed;" vertex="1" parent="1">
          <mxGeometry x="636" y="502.5" width="18" height="18" as="geometry" />
        </mxCell>
        <mxCell id="21LwvbHj16snSP2deV8U-157" value="" style="ellipse;whiteSpace=wrap;html=1;aspect=fixed;" vertex="1" parent="1">
          <mxGeometry x="636" y="528.5" width="18" height="18" as="geometry" />
        </mxCell>
        <mxCell id="21LwvbHj16snSP2deV8U-158" value="" style="ellipse;whiteSpace=wrap;html=1;aspect=fixed;" vertex="1" parent="1">
          <mxGeometry x="663" y="510.5" width="18" height="18" as="geometry" />
        </mxCell>
        <mxCell id="21LwvbHj16snSP2deV8U-160" value="" style="endArrow=none;html=1;rounded=0;" edge="1" parent="1">
          <mxGeometry width="50" height="50" relative="1" as="geometry">
            <mxPoint x="645" y="520.5" as="sourcePoint" />
            <mxPoint x="644.88" y="528.5" as="targetPoint" />
          </mxGeometry>
        </mxCell>
        <mxCell id="21LwvbHj16snSP2deV8U-161" value="" style="endArrow=none;html=1;rounded=0;" edge="1" parent="1">
          <mxGeometry width="50" height="50" relative="1" as="geometry">
            <mxPoint x="654" y="513.5" as="sourcePoint" />
            <mxPoint x="663" y="516.5" as="targetPoint" />
          </mxGeometry>
        </mxCell>
        <mxCell id="21LwvbHj16snSP2deV8U-162" value="" style="endArrow=none;html=1;rounded=0;entryX=-0.013;entryY=0.411;entryDx=0;entryDy=0;entryPerimeter=0;" edge="1" parent="1" target="21LwvbHj16snSP2deV8U-157">
          <mxGeometry width="50" height="50" relative="1" as="geometry">
            <mxPoint x="621" y="528" as="sourcePoint" />
            <mxPoint x="635" y="534.5" as="targetPoint" />
          </mxGeometry>
        </mxCell>
        <mxCell id="21LwvbHj16snSP2deV8U-164" value="" style="ellipse;whiteSpace=wrap;html=1;aspect=fixed;" vertex="1" parent="1">
          <mxGeometry x="625" y="354" width="18" height="18" as="geometry" />
        </mxCell>
        <mxCell id="21LwvbHj16snSP2deV8U-167" value="" style="ellipse;whiteSpace=wrap;html=1;aspect=fixed;" vertex="1" parent="1">
          <mxGeometry x="640" y="331" width="18" height="18" as="geometry" />
        </mxCell>
        <mxCell id="21LwvbHj16snSP2deV8U-169" value="" style="ellipse;whiteSpace=wrap;html=1;aspect=fixed;" vertex="1" parent="1">
          <mxGeometry x="640" y="383" width="18" height="18" as="geometry" />
        </mxCell>
        <mxCell id="21LwvbHj16snSP2deV8U-170" value="" style="ellipse;whiteSpace=wrap;html=1;aspect=fixed;" vertex="1" parent="1">
          <mxGeometry x="662" y="349" width="18" height="18" as="geometry" />
        </mxCell>
        <mxCell id="21LwvbHj16snSP2deV8U-171" value="" style="ellipse;whiteSpace=wrap;html=1;aspect=fixed;" vertex="1" parent="1">
          <mxGeometry x="671" y="372" width="18" height="18" as="geometry" />
        </mxCell>
        <mxCell id="21LwvbHj16snSP2deV8U-174" value="" style="ellipse;whiteSpace=wrap;html=1;aspect=fixed;" vertex="1" parent="1">
          <mxGeometry x="698" y="354" width="18" height="18" as="geometry" />
        </mxCell>
        <mxCell id="21LwvbHj16snSP2deV8U-176" value="" style="endArrow=none;html=1;rounded=0;exitX=0;exitY=1;exitDx=0;exitDy=0;" edge="1" parent="1" source="21LwvbHj16snSP2deV8U-174">
          <mxGeometry width="50" height="50" relative="1" as="geometry">
            <mxPoint x="688.84" y="371.5" as="sourcePoint" />
            <mxPoint x="688.72" y="379.5" as="targetPoint" />
          </mxGeometry>
        </mxCell>
        <mxCell id="21LwvbHj16snSP2deV8U-177" value="" style="endArrow=none;html=1;rounded=0;entryX=0;entryY=0.5;entryDx=0;entryDy=0;" edge="1" parent="1" target="21LwvbHj16snSP2deV8U-170">
          <mxGeometry width="50" height="50" relative="1" as="geometry">
            <mxPoint x="643" y="361.5" as="sourcePoint" />
            <mxPoint x="652" y="364.5" as="targetPoint" />
          </mxGeometry>
        </mxCell>
        <mxCell id="21LwvbHj16snSP2deV8U-179" value="" style="endArrow=none;html=1;rounded=0;entryX=0.029;entryY=0.734;entryDx=0;entryDy=0;entryPerimeter=0;exitX=1;exitY=0.5;exitDx=0;exitDy=0;" edge="1" parent="1" target="21LwvbHj16snSP2deV8U-171" source="21LwvbHj16snSP2deV8U-169">
          <mxGeometry width="50" height="50" relative="1" as="geometry">
            <mxPoint x="656" y="371.5" as="sourcePoint" />
            <mxPoint x="670" y="378" as="targetPoint" />
          </mxGeometry>
        </mxCell>
        <mxCell id="21LwvbHj16snSP2deV8U-183" value="" style="endArrow=none;html=1;rounded=0;entryX=0.634;entryY=-0.001;entryDx=0;entryDy=0;entryPerimeter=0;" edge="1" parent="1" target="21LwvbHj16snSP2deV8U-169">
          <mxGeometry width="50" height="50" relative="1" as="geometry">
            <mxPoint x="665.12" y="364.5" as="sourcePoint" />
            <mxPoint x="665" y="372.5" as="targetPoint" />
          </mxGeometry>
        </mxCell>
        <mxCell id="21LwvbHj16snSP2deV8U-186" value="" style="endArrow=none;html=1;rounded=0;entryX=0.5;entryY=0;entryDx=0;entryDy=0;exitX=0;exitY=1;exitDx=0;exitDy=0;" edge="1" parent="1" target="21LwvbHj16snSP2deV8U-164" source="21LwvbHj16snSP2deV8U-167">
          <mxGeometry width="50" height="50" relative="1" as="geometry">
            <mxPoint x="620" y="336" as="sourcePoint" />
            <mxPoint x="619.88" y="344" as="targetPoint" />
          </mxGeometry>
        </mxCell>
        <mxCell id="21LwvbHj16snSP2deV8U-189" value="" style="endArrow=none;html=1;rounded=0;entryX=-0.006;entryY=0.462;entryDx=0;entryDy=0;entryPerimeter=0;strokeWidth=2;" edge="1" parent="1" target="21LwvbHj16snSP2deV8U-120">
          <mxGeometry width="50" height="50" relative="1" as="geometry">
            <mxPoint x="488" y="413.5" as="sourcePoint" />
            <mxPoint x="507" y="413" as="targetPoint" />
          </mxGeometry>
        </mxCell>
        <mxCell id="21LwvbHj16snSP2deV8U-190" value="" style="endArrow=none;html=1;rounded=0;strokeWidth=2;entryX=0.272;entryY=0.059;entryDx=0;entryDy=0;entryPerimeter=0;" edge="1" parent="1" target="21LwvbHj16snSP2deV8U-163">
          <mxGeometry width="50" height="50" relative="1" as="geometry">
            <mxPoint x="593" y="443.75" as="sourcePoint" />
            <mxPoint x="623" y="481" as="targetPoint" />
          </mxGeometry>
        </mxCell>
        <mxCell id="21LwvbHj16snSP2deV8U-191" value="" style="endArrow=none;html=1;rounded=0;strokeWidth=2;" edge="1" parent="1" target="21LwvbHj16snSP2deV8U-154">
          <mxGeometry width="50" height="50" relative="1" as="geometry">
            <mxPoint x="543" y="452" as="sourcePoint" />
            <mxPoint x="571" y="488.25" as="targetPoint" />
          </mxGeometry>
        </mxCell>
        <mxCell id="21LwvbHj16snSP2deV8U-192" value="" style="endArrow=none;html=1;rounded=0;strokeWidth=2;entryX=1;entryY=0.5;entryDx=0;entryDy=0;" edge="1" parent="1" target="21LwvbHj16snSP2deV8U-154">
          <mxGeometry width="50" height="50" relative="1" as="geometry">
            <mxPoint x="597" y="522.5" as="sourcePoint" />
            <mxPoint x="589" y="546.5" as="targetPoint" />
          </mxGeometry>
        </mxCell>
        <mxCell id="21LwvbHj16snSP2deV8U-193" value="" style="endArrow=none;html=1;rounded=0;strokeWidth=2;entryX=1;entryY=0.5;entryDx=0;entryDy=0;exitX=0.463;exitY=1;exitDx=0;exitDy=0;exitPerimeter=0;" edge="1" parent="1" source="21LwvbHj16snSP2deV8U-188">
          <mxGeometry width="50" height="50" relative="1" as="geometry">
            <mxPoint x="684" y="481.5" as="sourcePoint" />
            <mxPoint x="654" y="479" as="targetPoint" />
          </mxGeometry>
        </mxCell>
        <mxCell id="21LwvbHj16snSP2deV8U-194" value="" style="endArrow=none;html=1;rounded=0;strokeWidth=2;" edge="1" parent="1">
          <mxGeometry width="50" height="50" relative="1" as="geometry">
            <mxPoint x="427" y="450" as="sourcePoint" />
            <mxPoint x="419" y="474" as="targetPoint" />
          </mxGeometry>
        </mxCell>
        <mxCell id="21LwvbHj16snSP2deV8U-196" value="" style="endArrow=classic;html=1;rounded=0;strokeWidth=3;" edge="1" parent="1">
          <mxGeometry width="50" height="50" relative="1" as="geometry">
            <mxPoint x="359" y="532.5" as="sourcePoint" />
            <mxPoint x="258" y="567.5" as="targetPoint" />
          </mxGeometry>
        </mxCell>
        <mxCell id="21LwvbHj16snSP2deV8U-197" value="&lt;font face=&quot;Verdana&quot;&gt;Map&lt;/font&gt;" style="text;html=1;align=center;verticalAlign=middle;whiteSpace=wrap;rounded=0;" vertex="1" parent="1">
          <mxGeometry x="245" y="513.5" width="104" height="36" as="geometry" />
        </mxCell>
        <mxCell id="21LwvbHj16snSP2deV8U-199" value="" style="rounded=0;whiteSpace=wrap;html=1;strokeColor=#CCCCCC;" vertex="1" parent="1">
          <mxGeometry x="88" y="554" width="71" height="47" as="geometry" />
        </mxCell>
        <mxCell id="21LwvbHj16snSP2deV8U-200" value="" style="ellipse;whiteSpace=wrap;html=1;aspect=fixed;" vertex="1" parent="1">
          <mxGeometry x="100" y="563.25" width="18" height="18" as="geometry" />
        </mxCell>
        <mxCell id="21LwvbHj16snSP2deV8U-201" value="" style="ellipse;whiteSpace=wrap;html=1;aspect=fixed;" vertex="1" parent="1">
          <mxGeometry x="131" y="573.25" width="18" height="18" as="geometry" />
        </mxCell>
        <mxCell id="21LwvbHj16snSP2deV8U-203" value="" style="endArrow=none;html=1;rounded=0;entryX=0.029;entryY=0.274;entryDx=0;entryDy=0;entryPerimeter=0;" edge="1" parent="1">
          <mxGeometry width="50" height="50" relative="1" as="geometry">
            <mxPoint x="118" y="573.25" as="sourcePoint" />
            <mxPoint x="131" y="581.25" as="targetPoint" />
          </mxGeometry>
        </mxCell>
        <mxCell id="21LwvbHj16snSP2deV8U-205" value="" style="ellipse;whiteSpace=wrap;html=1;aspect=fixed;" vertex="1" parent="1">
          <mxGeometry x="192" y="555.5" width="18" height="18" as="geometry" />
        </mxCell>
        <mxCell id="21LwvbHj16snSP2deV8U-206" value="" style="ellipse;whiteSpace=wrap;html=1;aspect=fixed;" vertex="1" parent="1">
          <mxGeometry x="192" y="581.5" width="18" height="18" as="geometry" />
        </mxCell>
        <mxCell id="21LwvbHj16snSP2deV8U-208" value="" style="ellipse;whiteSpace=wrap;html=1;aspect=fixed;" vertex="1" parent="1">
          <mxGeometry x="223" y="570.5" width="18" height="18" as="geometry" />
        </mxCell>
        <mxCell id="21LwvbHj16snSP2deV8U-209" value="" style="endArrow=none;html=1;rounded=0;entryX=0.5;entryY=0;entryDx=0;entryDy=0;" edge="1" parent="1">
          <mxGeometry width="50" height="50" relative="1" as="geometry">
            <mxPoint x="201" y="573.5" as="sourcePoint" />
            <mxPoint x="200.91" y="581.5" as="targetPoint" />
          </mxGeometry>
        </mxCell>
        <mxCell id="21LwvbHj16snSP2deV8U-210" value="" style="endArrow=none;html=1;rounded=0;entryX=0.081;entryY=0.262;entryDx=0;entryDy=0;entryPerimeter=0;" edge="1" parent="1" target="21LwvbHj16snSP2deV8U-208">
          <mxGeometry width="50" height="50" relative="1" as="geometry">
            <mxPoint x="210" y="566.5" as="sourcePoint" />
            <mxPoint x="221" y="573.5" as="targetPoint" />
          </mxGeometry>
        </mxCell>
        <mxCell id="21LwvbHj16snSP2deV8U-211" value="" style="endArrow=none;html=1;rounded=0;" edge="1" parent="1">
          <mxGeometry width="50" height="50" relative="1" as="geometry">
            <mxPoint x="223" y="581.5" as="sourcePoint" />
            <mxPoint x="210" y="588.5" as="targetPoint" />
          </mxGeometry>
        </mxCell>
        <mxCell id="21LwvbHj16snSP2deV8U-214" value="" style="rounded=0;whiteSpace=wrap;html=1;strokeColor=#CCCCCC;" vertex="1" parent="1">
          <mxGeometry x="146" y="624" width="42" height="36" as="geometry" />
        </mxCell>
        <mxCell id="21LwvbHj16snSP2deV8U-215" value="" style="ellipse;whiteSpace=wrap;html=1;aspect=fixed;" vertex="1" parent="1">
          <mxGeometry x="158" y="633.25" width="18" height="18" as="geometry" />
        </mxCell>
        <mxCell id="21LwvbHj16snSP2deV8U-218" value="" style="endArrow=none;html=1;rounded=0;exitX=0;exitY=1;exitDx=0;exitDy=0;" edge="1" parent="1" source="21LwvbHj16snSP2deV8U-206">
          <mxGeometry width="50" height="50" relative="1" as="geometry">
            <mxPoint x="188" y="618.25" as="sourcePoint" />
            <mxPoint x="169" y="633.25" as="targetPoint" />
          </mxGeometry>
        </mxCell>
        <mxCell id="21LwvbHj16snSP2deV8U-219" value="" style="endArrow=none;html=1;rounded=0;exitX=0;exitY=0.5;exitDx=0;exitDy=0;" edge="1" parent="1" source="21LwvbHj16snSP2deV8U-205">
          <mxGeometry width="50" height="50" relative="1" as="geometry">
            <mxPoint x="143" y="531.5" as="sourcePoint" />
            <mxPoint x="117" y="567.75" as="targetPoint" />
          </mxGeometry>
        </mxCell>
      </root>
    </mxGraphModel>
  </diagram>
</mxfile>
